<svg width="457" height="88" viewBox="0 0 457 88" fill="none" xmlns="http://www.w3.org/2000/svg">
<path d="M3.16501 1.26617C2.89501 1.64617 2.77501 2.12616 2.52501 3.22616C2.27501 4.32616 2.105 5.06616 1.905 6.75616C1.705 8.45616 1.655 9.64617 1.545 11.6762C1.435 13.7162 1.435 14.8762 1.345 16.9362C1.265 18.9962 1.18501 20.0962 1.11501 21.9662C1.05501 23.8462 1.035 24.7962 1.015 26.2962C1.005 27.8062 0.974999 28.4662 1.045 29.4962C1.105 30.5362 1.145 30.9662 1.345 31.4762C1.555 31.9962 1.76501 32.1362 2.08501 32.0662C2.40501 31.9962 2.645 31.7762 2.965 31.1262C3.285 30.4762 3.385 29.9262 3.675 28.8062C3.965 27.6762 4.025 26.8662 4.405 25.5062C4.795 24.1362 5.025 23.2962 5.595 21.9862C6.165 20.6762 6.545 20.0062 7.235 18.9762C7.935 17.9462 8.365 17.4962 9.075 16.8362C9.785 16.1762 10.165 15.9362 10.805 15.6862C11.435 15.4362 11.715 15.4262 12.255 15.5862C12.785 15.7462 13.015 15.9462 13.485 16.4862C13.945 17.0362 14.165 17.4262 14.565 18.3062C14.965 19.1762 15.165 19.7662 15.505 20.8562C15.845 21.9462 16.005 22.6162 16.265 23.7662C16.535 24.9162 16.625 25.5362 16.845 26.6162C17.075 27.6862 17.145 28.2262 17.385 29.1162C17.635 30.0062 17.755 30.4062 18.075 31.0662C18.385 31.7362 18.555 32.0362 18.965 32.4462C19.385 32.8562 19.715 32.9762 20.135 33.1062C20.565 33.2462 20.795 33.2062 21.095 33.1162C21.385 33.0162 21.565 32.8562 21.625 32.6462C21.685 32.4362 21.525 32.2062 21.395 32.0662C21.265 31.9262 21.135 32.0162 20.975 31.9762C20.815 31.9262 20.805 31.9362 20.615 31.8362C20.415 31.7362 20.215 31.7562 19.985 31.4862C19.755 31.2162 19.665 31.0362 19.475 30.4862C19.285 29.9362 19.205 29.5762 19.035 28.7262C18.875 27.8862 18.825 27.3562 18.655 26.2762C18.495 25.2062 18.435 24.5562 18.195 23.3462C17.955 22.1362 17.825 21.4262 17.445 20.2362C17.065 19.0462 16.855 18.3962 16.295 17.4062C15.735 16.4162 15.385 15.9362 14.655 15.2962C13.915 14.6662 13.465 14.4161 12.605 14.2161C11.735 14.0161 11.255 14.0362 10.335 14.3162C9.42501 14.5862 8.93501 14.8662 8.02501 15.5862C7.10501 16.3062 6.615 16.7962 5.765 17.9062C4.905 19.0062 4.45501 19.7262 3.74501 21.1062C3.03501 22.4962 2.685 23.3862 2.205 24.8262C1.735 26.2762 1.53501 27.1362 1.36501 28.3462C1.18501 29.5462 1.23501 30.1462 1.33501 30.8662C1.43501 31.5762 1.65501 31.8162 1.86501 31.9162C2.07501 32.0262 2.225 31.8962 2.375 31.4162C2.515 30.9262 2.50501 30.5162 2.58501 29.5062C2.65501 28.4962 2.655 27.8462 2.735 26.3562C2.815 24.8662 2.85501 23.9262 2.97501 22.0662C3.10501 20.2062 3.20501 19.1062 3.35501 17.0562C3.51501 15.0062 3.61501 13.8362 3.75501 11.8162C3.89501 9.78616 3.97501 8.61615 4.05501 6.93615C4.12501 5.24615 4.165 4.50616 4.125 3.38616C4.095 2.26616 4.07501 1.76618 3.88501 1.33618C3.69501 0.916175 3.44501 0.886168 3.16501 1.26617Z" fill="black" stroke="black"/>
<path d="M29.3951 18.436C29.1751 18.696 29.1051 18.9961 28.9951 19.6961C28.8751 20.3861 28.8151 20.9161 28.8351 21.9261C28.8451 22.9461 28.9151 23.6661 29.0651 24.7661C29.2051 25.8661 29.3451 26.4961 29.5651 27.4461C29.7851 28.3961 29.9151 28.8561 30.1751 29.5261C30.4251 30.1961 30.5651 30.4361 30.8251 30.7961C31.0851 31.1561 31.2451 31.206 31.4551 31.316C31.6651 31.426 31.7451 31.386 31.8551 31.346C31.9751 31.296 31.9851 31.1961 32.0251 31.1061C32.0651 31.0061 32.0451 31.0261 32.0451 30.8561C32.0351 30.6861 32.0451 30.6161 31.9751 30.2661C31.9151 29.9161 31.8151 29.7361 31.7151 29.1061C31.6151 28.4861 31.5551 28.0561 31.4751 27.1361C31.3951 26.2261 31.3851 25.606 31.3051 24.536C31.2151 23.456 31.1951 22.7561 31.0651 21.7661C30.9351 20.7861 30.8451 20.276 30.6551 19.596C30.4651 18.926 30.3651 18.6361 30.1051 18.3961C29.8551 18.1661 29.6251 18.186 29.3951 18.436Z" fill="black" stroke="black"/>
<path d="M29.4649 8.07603C29.5649 7.76603 29.5649 7.42604 29.4049 7.36604C29.2449 7.31604 28.9349 7.53605 28.6649 7.77605C28.3849 8.01605 28.1749 8.26605 28.0149 8.55605C27.8549 8.83605 27.8549 8.99602 27.8649 9.18602C27.8749 9.38602 27.8449 9.43603 28.0449 9.50603C28.2349 9.58603 28.5049 9.63604 28.8349 9.57604C29.1549 9.50604 29.4249 9.41602 29.6749 9.18602C29.9349 8.95602 30.0649 8.67602 30.0949 8.43602C30.1249 8.19602 29.9849 8.07604 29.8149 7.98604C29.6449 7.88604 29.4749 7.83603 29.2349 7.94603C28.9849 8.05603 28.7649 8.28603 28.5949 8.53603C28.4149 8.77603 28.2849 9.10604 28.3449 9.17604C28.4149 9.24604 28.6949 9.11604 28.9149 8.89604C29.1449 8.67604 29.3649 8.37603 29.4649 8.07603Z" fill="black" stroke="black"/>
<path d="M49.7249 29.506C49.5149 29.676 49.4849 29.796 49.3249 30.326C49.1649 30.846 49.0649 31.226 48.9349 32.136C48.7949 33.046 48.7949 33.706 48.6349 34.886C48.4749 36.066 48.3649 36.786 48.1149 38.036C47.8649 39.296 47.6549 40.026 47.3749 41.156C47.1049 42.276 46.9149 42.826 46.7449 43.666C46.5749 44.496 46.5449 44.816 46.5249 45.326C46.5049 45.836 46.5249 46.026 46.6349 46.226C46.7449 46.426 46.8849 46.446 47.0649 46.326C47.2449 46.206 47.3049 46.056 47.5549 45.616C47.8049 45.186 47.9749 44.946 48.3149 44.156C48.6549 43.376 48.8749 42.816 49.2449 41.696C49.6149 40.566 49.8649 39.806 50.1949 38.516C50.5249 37.216 50.7049 36.456 50.8949 35.216C51.0849 33.966 51.1349 33.266 51.1349 32.286C51.1249 31.316 51.0149 30.896 50.8649 30.326C50.7049 29.766 50.5849 29.636 50.3549 29.466C50.1349 29.306 49.9249 29.336 49.7249 29.506Z" fill="black" stroke="black"/>
<path d="M84.3149 18.1459C84.0749 18.3659 83.9749 18.586 83.7949 19.246C83.6249 19.896 83.4949 20.4059 83.4349 21.4259C83.3749 22.4359 83.4149 23.1859 83.5149 24.3259C83.6149 25.4659 83.7449 26.1259 83.9449 27.1259C84.1349 28.1259 84.2649 28.5959 84.4949 29.3259C84.7349 30.0659 84.8949 30.3459 85.1149 30.7859C85.3349 31.2259 85.4049 31.3459 85.6149 31.5359C85.8249 31.7159 85.9949 31.7259 86.1449 31.7259C86.3049 31.7259 86.3749 31.5859 86.3949 31.5359C86.4149 31.4859 86.2449 31.4859 86.2449 31.4559C86.2549 31.4359 86.3649 31.4859 86.4249 31.4059C86.4849 31.3259 86.5549 31.2659 86.5549 31.0459C86.5449 30.8259 86.4949 30.7359 86.4049 30.3159C86.3049 29.8959 86.1949 29.6359 86.0949 28.9459C85.9849 28.2559 85.9349 27.8259 85.8749 26.8659C85.8149 25.9159 85.8349 25.2859 85.7949 24.1859C85.7649 23.0959 85.7749 22.3859 85.7049 21.4059C85.6249 20.4259 85.5649 19.9359 85.4249 19.2859C85.2849 18.6459 85.2249 18.4059 85.0049 18.1759C84.7749 17.9459 84.5549 17.9359 84.3149 18.1459Z" fill="black" stroke="black"/>
<path d="M83.385 6.3061C83.545 6.0561 83.565 5.76608 83.425 5.75608C83.275 5.74608 82.835 6.07608 82.655 6.25608C82.485 6.43608 82.495 6.6761 82.555 6.6461C82.605 6.6261 82.945 6.19609 82.955 6.13609C82.955 6.06609 82.745 6.12608 82.575 6.31608C82.405 6.50608 82.105 6.93609 82.115 7.07609C82.125 7.21609 82.365 7.17609 82.615 7.01609C82.865 6.86609 83.225 6.5661 83.385 6.3061Z" fill="black" stroke="black"/>
<path d="M100.545 7.61595C100.315 7.73595 100.235 7.80596 100.015 8.24596C99.805 8.68596 99.625 9.01593 99.455 9.81593C99.275 10.6259 99.235 11.226 99.125 12.276C99.025 13.326 98.985 13.9659 98.935 15.0659C98.885 16.1759 98.845 16.7959 98.885 17.7859C98.935 18.7759 99.025 19.2759 99.165 20.0059C99.315 20.7359 99.435 20.9859 99.615 21.4359C99.795 21.8859 99.885 22.0259 100.075 22.2559C100.255 22.4859 100.375 22.5159 100.535 22.5759C100.685 22.6359 100.775 22.5959 100.865 22.5359C100.955 22.4759 100.955 22.3559 100.995 22.2659C101.025 22.1859 101.035 22.2159 101.055 22.1059C101.075 22.0059 101.115 21.9659 101.075 21.7559C101.045 21.5459 100.965 21.4559 100.905 21.0659C100.845 20.6759 100.805 20.456 100.785 19.806C100.755 19.146 100.725 18.7059 100.775 17.7859C100.825 16.8759 100.895 16.296 101.025 15.246C101.165 14.196 101.305 13.5659 101.435 12.5359C101.565 11.4959 101.655 10.906 101.675 10.086C101.695 9.26595 101.635 8.91593 101.535 8.43593C101.435 7.95593 101.365 7.85593 101.165 7.68593C100.965 7.52593 100.775 7.50595 100.545 7.61595Z" fill="black" stroke="black"/>
<path d="M112.385 19.2759C112.145 19.4559 112.045 19.6859 111.885 20.2159C111.725 20.7559 111.635 21.1359 111.575 21.9559C111.515 22.7759 111.525 23.3559 111.585 24.3059C111.645 25.2659 111.715 25.8259 111.895 26.7159C112.065 27.5959 112.175 28.0559 112.455 28.7459C112.735 29.4359 112.865 29.7559 113.275 30.1659C113.685 30.5659 113.965 30.7359 114.485 30.7759C115.015 30.8059 115.345 30.7159 115.885 30.3359C116.425 29.9559 116.675 29.6159 117.195 28.8659C117.715 28.1259 117.945 27.5659 118.465 26.6059C118.985 25.6459 119.295 25.0159 119.795 24.0759C120.305 23.1259 120.615 22.5459 121.005 21.8859C121.405 21.2259 121.525 20.9459 121.765 20.7859C121.995 20.6259 122.025 20.7559 122.185 21.0959C122.345 21.4459 122.365 21.8159 122.565 22.4959C122.775 23.1859 122.905 23.7159 123.215 24.5259C123.535 25.3359 123.745 25.8059 124.145 26.5559C124.555 27.2959 124.765 27.6759 125.265 28.2359C125.765 28.8059 126.055 29.0859 126.645 29.3559C127.235 29.6359 127.575 29.6759 128.215 29.6059C128.865 29.5259 129.195 29.4159 129.865 28.9859C130.545 28.5559 130.905 28.2159 131.575 27.4559C132.255 26.6959 132.605 26.0859 133.235 25.1959C133.865 24.3059 134.215 23.7559 134.735 22.9759C135.255 22.2059 135.515 21.7659 135.845 21.3359C136.165 20.9059 136.195 20.7759 136.345 20.8359C136.495 20.8959 136.455 21.1359 136.605 21.6359C136.765 22.1359 136.835 22.5859 137.125 23.3359C137.425 24.0859 137.615 24.5659 138.085 25.3759C138.555 26.1859 138.865 26.6559 139.475 27.3859C140.085 28.1159 140.445 28.4559 141.125 29.0259C141.815 29.6059 142.175 29.8659 142.905 30.2559C143.635 30.6559 144.085 30.8159 144.795 31.0059C145.505 31.1959 145.895 31.2359 146.445 31.2159C146.995 31.1959 147.335 31.0859 147.565 30.9059C147.805 30.7159 147.795 30.5059 147.625 30.2759C147.445 30.0559 147.155 29.9859 146.695 29.7859C146.235 29.5859 145.925 29.5059 145.325 29.2959C144.735 29.0759 144.335 29.0359 143.725 28.7159C143.125 28.3959 142.845 28.1959 142.295 27.6959C141.745 27.1959 141.455 26.8759 140.985 26.2059C140.505 25.5459 140.295 25.1259 139.915 24.3759C139.525 23.6159 139.435 23.1559 139.045 22.4359C138.655 21.7159 138.445 21.2859 137.955 20.7759C137.455 20.2659 137.165 20.0059 136.565 19.8859C135.965 19.7759 135.625 19.8359 134.945 20.1959C134.255 20.5659 133.865 20.9659 133.165 21.7059C132.455 22.4459 132.085 23.0059 131.425 23.8859C130.775 24.7659 130.425 25.3459 129.885 26.0959C129.355 26.8459 129.145 27.1959 128.765 27.6259C128.375 28.0659 128.255 28.1659 127.965 28.2659C127.675 28.3659 127.595 28.3459 127.325 28.1359C127.055 27.9259 126.895 27.7059 126.605 27.2259C126.325 26.7459 126.165 26.4259 125.895 25.7259C125.625 25.0359 125.575 24.5559 125.265 23.7459C124.965 22.9259 124.815 22.3759 124.375 21.6659C123.935 20.9559 123.655 20.5759 123.075 20.1859C122.495 19.8059 122.135 19.6359 121.455 19.7459C120.775 19.8559 120.365 20.1059 119.665 20.7459C118.955 21.3859 118.585 21.9859 117.935 22.9459C117.295 23.9059 116.975 24.5559 116.455 25.5259C115.935 26.4859 115.675 27.0359 115.325 27.7859C114.975 28.5359 114.875 28.8659 114.705 29.2759C114.545 29.6759 114.565 29.7759 114.495 29.8059C114.425 29.8359 114.435 29.7359 114.355 29.4259C114.275 29.1259 114.195 28.8659 114.095 28.2659C114.005 27.6759 113.915 27.2659 113.865 26.4559C113.815 25.6359 113.855 25.1159 113.845 24.2159C113.825 23.3159 113.845 22.7359 113.785 21.9459C113.715 21.1559 113.645 20.7859 113.505 20.2559C113.365 19.7259 113.315 19.5059 113.095 19.3059C112.875 19.1059 112.625 19.0859 112.385 19.2759Z" fill="black" stroke="black"/>
<path d="M182.975 5.41596C182.735 5.57596 182.615 5.69595 182.425 6.31595C182.235 6.93595 182.075 7.36596 182.025 8.50596C181.975 9.65596 181.985 10.476 182.165 12.046C182.345 13.616 182.555 14.656 182.925 16.356C183.295 18.046 183.535 18.996 184.015 20.526C184.505 22.056 184.785 22.786 185.375 24.006C185.955 25.226 186.295 25.776 186.945 26.636C187.595 27.506 187.935 27.856 188.605 28.346C189.275 28.826 189.625 28.956 190.285 29.046C190.945 29.146 191.315 29.116 191.905 28.806C192.485 28.486 192.775 28.1959 193.215 27.4659C193.645 26.7359 193.805 26.206 194.085 25.156C194.365 24.106 194.455 23.416 194.635 22.236C194.805 21.056 194.875 20.316 194.955 19.246C195.025 18.176 195.085 17.586 195.025 16.886C194.965 16.176 194.805 15.856 194.665 15.736C194.525 15.606 194.325 15.766 194.335 16.266C194.335 16.776 194.365 17.326 194.695 18.246C195.035 19.176 195.335 19.826 195.985 20.896C196.645 21.956 197.125 22.596 197.975 23.576C198.825 24.546 199.305 25.016 200.235 25.766C201.165 26.506 201.665 26.836 202.615 27.296C203.575 27.746 204.075 27.926 205.005 28.046C205.935 28.166 206.425 28.136 207.275 27.886C208.115 27.646 208.545 27.446 209.245 26.826C209.945 26.206 210.275 25.796 210.785 24.786C211.295 23.786 211.515 23.136 211.805 21.826C212.105 20.516 212.195 19.706 212.265 18.246C212.345 16.776 212.315 15.936 212.185 14.506C212.055 13.066 211.905 12.306 211.595 11.086C211.295 9.85597 211.055 9.30595 210.645 8.37595C210.225 7.45595 209.955 7.06597 209.515 6.45597C209.075 5.84597 208.825 5.64596 208.465 5.35596C208.105 5.05596 207.965 5.02598 207.715 4.99598C207.465 4.96598 207.385 5.02596 207.215 5.19596C207.055 5.36596 206.885 5.66595 206.875 5.84595C206.865 6.02595 206.915 6.23596 207.155 6.10596C207.395 5.97596 207.935 5.42596 208.075 5.19596C208.215 4.96596 208.025 4.92597 207.865 4.95597C207.715 4.97597 207.445 5.15598 207.305 5.30598C207.165 5.45598 207.125 5.50596 207.165 5.69596C207.195 5.89596 207.275 5.94597 207.485 6.26597C207.705 6.58597 207.915 6.74597 208.245 7.29597C208.565 7.84597 208.805 8.17597 209.125 9.01597C209.455 9.84597 209.635 10.346 209.855 11.476C210.075 12.606 210.165 13.316 210.235 14.646C210.315 15.976 210.305 16.776 210.225 18.126C210.135 19.476 210.035 20.236 209.815 21.416C209.585 22.586 209.435 23.166 209.105 24.016C208.765 24.876 208.585 25.186 208.135 25.666C207.685 26.146 207.435 26.246 206.855 26.406C206.275 26.566 205.935 26.5859 205.235 26.4659C204.545 26.3459 204.145 26.216 203.385 25.796C202.615 25.376 202.175 25.086 201.415 24.386C200.655 23.686 200.245 23.246 199.565 22.306C198.885 21.366 198.585 20.696 198.015 19.686C197.435 18.686 197.215 18.076 196.695 17.266C196.185 16.466 195.915 16.026 195.435 15.646C194.945 15.276 194.665 15.206 194.265 15.406C193.865 15.606 193.695 15.926 193.425 16.646C193.155 17.356 193.105 17.936 192.915 18.986C192.715 20.036 192.625 20.756 192.445 21.896C192.255 23.036 192.145 23.706 191.965 24.676C191.795 25.646 191.725 26.136 191.575 26.746C191.425 27.366 191.405 27.536 191.195 27.746C190.985 27.966 190.865 27.926 190.525 27.816C190.185 27.716 189.955 27.636 189.495 27.226C189.045 26.806 188.755 26.516 188.235 25.726C187.725 24.946 187.405 24.456 186.925 23.306C186.455 22.166 186.235 21.476 185.855 19.996C185.485 18.526 185.335 17.586 185.055 15.946C184.785 14.296 184.655 13.276 184.485 11.776C184.305 10.276 184.285 9.52596 184.175 8.44596C184.055 7.37596 184.025 6.99595 183.905 6.40595C183.795 5.81595 183.785 5.69598 183.595 5.49598C183.405 5.29598 183.205 5.25596 182.975 5.41596Z" fill="black" stroke="black"/>
<path d="M219.615 14.5862C219.375 14.7962 219.285 15.0362 219.135 15.6362C218.985 16.2362 218.885 16.7062 218.865 17.5862C218.845 18.4762 218.915 19.1162 219.035 20.0862C219.165 21.0562 219.285 21.6062 219.495 22.4462C219.705 23.2862 219.835 23.7262 220.095 24.2862C220.355 24.8562 220.535 25.0062 220.795 25.2562C221.055 25.5062 221.215 25.5062 221.395 25.5362C221.585 25.5662 221.675 25.4662 221.725 25.3962C221.775 25.3262 221.655 25.2262 221.655 25.1662C221.655 25.1162 221.695 25.2062 221.715 25.1062C221.745 25.0162 221.805 24.9562 221.785 24.7062C221.765 24.4462 221.675 24.3462 221.605 23.8262C221.535 23.3062 221.495 22.9162 221.435 22.1162C221.365 21.3262 221.355 20.7762 221.285 19.8562C221.215 18.9262 221.195 18.3362 221.095 17.4862C221.005 16.6462 220.945 16.2162 220.795 15.6362C220.635 15.0462 220.555 14.7962 220.325 14.5862C220.085 14.3762 219.845 14.3762 219.615 14.5862Z" fill="black" stroke="black"/>
<path d="M218.465 7.35608C218.625 7.13608 218.555 7.08608 218.475 7.10608C218.385 7.13608 218.185 7.36608 218.035 7.47608C217.885 7.59608 217.865 7.55608 217.735 7.69608C217.595 7.82608 217.375 8.06608 217.365 8.16608C217.345 8.26608 217.435 8.36608 217.655 8.19608C217.875 8.03608 218.305 7.56608 218.465 7.35608Z" fill="black" stroke="black"/>
<path d="M231.185 3.82607C230.915 4.06607 230.735 4.36607 230.525 5.16607C230.305 5.97607 230.205 6.54608 230.115 7.83608C230.025 9.12608 230.005 10.0361 230.075 11.6161C230.135 13.1961 230.255 14.1461 230.435 15.7361C230.615 17.3261 230.705 18.1661 230.965 19.5661C231.225 20.9661 231.395 21.6361 231.735 22.7461C232.075 23.8561 232.265 24.3261 232.665 25.0961C233.065 25.8661 233.335 26.1661 233.755 26.6061C234.185 27.0461 234.435 27.1361 234.775 27.2761C235.125 27.4161 235.325 27.3861 235.505 27.3061C235.685 27.2261 235.715 27.0461 235.695 26.8761C235.665 26.7061 235.545 26.6761 235.365 26.4461C235.195 26.2161 235.095 26.1261 234.825 25.7261C234.555 25.3261 234.325 25.1261 234.025 24.4461C233.725 23.7561 233.585 23.3361 233.335 22.3061C233.085 21.2761 232.955 20.6361 232.775 19.2861C232.605 17.9361 232.565 17.1061 232.475 15.5561C232.385 14.0061 232.365 13.0761 232.325 11.5461C232.285 10.0061 232.335 9.12606 232.285 7.87606C232.245 6.62606 232.185 6.08607 232.105 5.29607C232.015 4.51607 232.055 4.22606 231.875 3.93606C231.685 3.63606 231.455 3.57607 231.185 3.82607Z" fill="black" stroke="black"/>
<path d="M240.365 7.09618C240.135 7.23618 240.005 7.33619 239.805 7.88619C239.615 8.43619 239.455 8.81619 239.385 9.85619C239.315 10.8962 239.355 11.6662 239.445 13.0762C239.545 14.4762 239.665 15.3962 239.865 16.8862C240.065 18.3762 240.195 19.1862 240.465 20.5262C240.735 21.8662 240.885 22.5062 241.215 23.5962C241.545 24.6762 241.705 25.1562 242.115 25.9662C242.525 26.7762 242.765 27.1462 243.265 27.6462C243.765 28.1462 244.265 28.3962 244.625 28.4462C244.995 28.5062 245.145 28.2762 245.085 27.9462C245.025 27.6162 244.625 27.3262 244.315 26.8062C243.995 26.2862 243.815 26.0562 243.525 25.3262C243.225 24.5962 243.075 24.1762 242.835 23.1562C242.595 22.1362 242.485 21.5162 242.315 20.2162C242.155 18.9262 242.105 18.1262 242.005 16.6662C241.905 15.2062 241.895 14.2862 241.815 12.9162C241.725 11.5462 241.685 10.8062 241.575 9.81618C241.465 8.82618 241.385 8.50619 241.265 7.98619C241.145 7.46619 241.155 7.3762 240.975 7.2062C240.795 7.0262 240.595 6.96618 240.365 7.09618Z" fill="black" stroke="black"/>
<path d="M296.405 18.8062C296.395 18.4862 296.245 18.1662 295.855 17.7962C295.465 17.4262 295.145 17.1762 294.455 16.9462C293.765 16.7062 293.295 16.5862 292.415 16.6362C291.535 16.6762 291.055 16.7762 290.065 17.1562C289.065 17.5462 288.465 17.8362 287.435 18.5562C286.415 19.2762 285.815 19.7962 284.935 20.7662C284.045 21.7462 283.555 22.3462 283.005 23.4162C282.455 24.4862 282.245 25.1262 282.165 26.1162C282.085 27.1162 282.205 27.6162 282.605 28.3862C283.005 29.1562 283.385 29.4962 284.175 29.9662C284.965 30.4262 285.515 30.5962 286.545 30.7162C287.585 30.8362 288.205 30.7662 289.335 30.5662C290.465 30.3662 291.095 30.1662 292.185 29.7062C293.285 29.2362 293.855 28.9262 294.815 28.2462C295.785 27.5662 296.245 27.1262 297.015 26.3062C297.795 25.4862 298.155 24.9962 298.675 24.1262C299.205 23.2662 299.475 22.7462 299.645 21.9762C299.815 21.2062 299.745 20.6862 299.535 20.2662C299.325 19.8462 298.965 19.7362 298.605 19.8962C298.255 20.0462 297.965 20.3762 297.765 21.0262C297.555 21.6762 297.465 22.2262 297.585 23.1362C297.705 24.0462 297.935 24.6762 298.355 25.5762C298.765 26.4862 299.065 26.9562 299.645 27.6662C300.225 28.3862 300.565 28.6862 301.265 29.1562C301.955 29.6262 302.345 29.8062 303.125 30.0262C303.895 30.2362 304.345 30.2962 305.155 30.2262C305.975 30.1662 306.415 30.0562 307.195 29.6962C307.975 29.3362 308.375 29.0762 309.065 28.4462C309.755 27.8162 310.075 27.3862 310.635 26.5662C311.195 25.7362 311.475 25.2362 311.875 24.3162C312.285 23.4062 312.535 22.7562 312.665 21.9962C312.785 21.2462 312.655 20.8062 312.495 20.5362C312.345 20.2662 312.105 20.3262 311.885 20.6362C311.665 20.9362 311.485 21.3462 311.415 22.0762C311.345 22.8062 311.335 23.4162 311.535 24.2762C311.735 25.1262 312.025 25.6262 312.435 26.3262C312.835 27.0362 313.065 27.3262 313.565 27.7762C314.055 28.2262 314.325 28.4162 314.905 28.5762C315.485 28.7362 315.835 28.7562 316.475 28.5962C317.115 28.4262 317.455 28.2462 318.105 27.7562C318.765 27.2662 319.095 26.8662 319.735 26.1162C320.375 25.3662 320.685 24.8362 321.315 24.0062C321.935 23.1662 322.295 22.6562 322.855 21.9462C323.415 21.2462 323.705 20.8762 324.105 20.4562C324.505 20.0462 324.625 19.8962 324.865 19.8862C325.115 19.8762 325.145 20.0162 325.335 20.4162C325.535 20.8162 325.575 21.1962 325.845 21.8762C326.125 22.5562 326.295 23.0362 326.725 23.8062C327.145 24.5762 327.435 25.0162 327.985 25.7162C328.545 26.4262 328.825 26.7662 329.495 27.3262C330.165 27.8862 330.545 28.1562 331.325 28.5362C332.105 28.9262 332.545 29.0662 333.405 29.2462C334.265 29.4362 334.795 29.4662 335.625 29.4562C336.465 29.4362 336.935 29.3762 337.585 29.1862C338.225 28.9862 338.635 28.7662 338.865 28.4962C339.095 28.2162 339.025 27.9962 338.745 27.8162C338.455 27.6462 338.035 27.6662 337.415 27.6062C336.795 27.5462 336.385 27.5562 335.655 27.5162C334.915 27.4862 334.455 27.5462 333.735 27.4462C333.025 27.3362 332.685 27.2662 332.065 26.9762C331.445 26.6962 331.155 26.4962 330.645 26.0162C330.135 25.5462 329.925 25.2562 329.515 24.6162C329.105 23.9762 328.945 23.5562 328.575 22.8162C328.205 22.0862 328.085 21.6262 327.655 20.9462C327.235 20.2662 327.005 19.8562 326.455 19.4262C325.905 18.9862 325.565 18.8062 324.915 18.7562C324.265 18.7162 323.915 18.8262 323.205 19.1962C322.505 19.5662 322.115 19.9262 321.385 20.6162C320.665 21.3162 320.275 21.8462 319.605 22.6862C318.945 23.5162 318.615 24.0462 318.065 24.7762C317.505 25.5062 317.255 25.8562 316.825 26.3362C316.405 26.8162 316.255 26.9662 315.935 27.1562C315.625 27.3462 315.525 27.3762 315.275 27.2962C315.025 27.2262 314.905 27.1162 314.695 26.7762C314.475 26.4362 314.355 26.1862 314.215 25.5862C314.075 24.9862 314.125 24.5262 314.005 23.7762C313.885 23.0262 313.855 22.4862 313.615 21.8162C313.385 21.1462 313.195 20.7462 312.835 20.4262C312.485 20.0962 312.245 19.9862 311.835 20.1762C311.435 20.3662 311.185 20.6862 310.805 21.3562C310.435 22.0162 310.335 22.6562 309.975 23.4862C309.615 24.3162 309.445 24.7962 309.005 25.5162C308.575 26.2462 308.305 26.5862 307.795 27.1062C307.275 27.6262 306.995 27.8262 306.435 28.1062C305.875 28.3862 305.575 28.4562 304.995 28.5162C304.425 28.5762 304.105 28.5662 303.545 28.4162C302.995 28.2762 302.695 28.1762 302.215 27.8062C301.725 27.4462 301.485 27.2062 301.115 26.6062C300.745 26.0062 300.595 25.5862 300.365 24.8162C300.145 24.0462 300.135 23.5062 299.995 22.7562C299.845 22.0062 299.825 21.6162 299.655 21.0762C299.475 20.5462 299.365 20.2762 299.135 20.1062C298.905 19.9362 298.745 19.9662 298.515 20.2262C298.285 20.4962 298.245 20.8362 297.975 21.4262C297.695 22.0162 297.595 22.4562 297.145 23.1862C296.685 23.9062 296.365 24.3462 295.695 25.0562C295.015 25.7562 294.605 26.1462 293.765 26.7162C292.915 27.2862 292.415 27.5362 291.455 27.9162C290.495 28.2962 289.925 28.4362 288.975 28.6162C288.015 28.7962 287.505 28.8462 286.685 28.8362C285.865 28.8162 285.455 28.7562 284.885 28.5462C284.305 28.3262 284.045 28.1962 283.805 27.7562C283.575 27.3162 283.535 27.0262 283.695 26.3462C283.865 25.6662 284.075 25.1862 284.625 24.3462C285.165 23.5162 285.625 23.0062 286.425 22.1862C287.235 21.3662 287.775 20.8862 288.645 20.2462C289.525 19.5962 290.035 19.2962 290.805 18.9562C291.575 18.6162 291.895 18.5562 292.505 18.5262C293.115 18.4962 293.375 18.6762 293.865 18.8162C294.365 18.9562 294.565 19.1062 294.975 19.2262C295.385 19.3462 295.625 19.5062 295.915 19.4162C296.205 19.3362 296.415 19.1362 296.405 18.8062Z" fill="black" stroke="black"/>
<path d="M351.005 23.0259C351.065 22.7059 350.985 22.3858 350.705 21.9158C350.425 21.4358 350.225 21.0958 349.615 20.6558C349.005 20.2058 348.535 19.8958 347.665 19.6858C346.795 19.4658 346.275 19.4458 345.265 19.5758C344.245 19.7058 343.645 19.8558 342.605 20.3258C341.565 20.7958 340.955 21.1558 340.065 21.9158C339.175 22.6758 338.695 23.2058 338.155 24.1258C337.615 25.0458 337.435 25.6259 337.355 26.5259C337.285 27.4159 337.385 27.8858 337.775 28.6058C338.165 29.3258 338.535 29.6758 339.305 30.1258C340.075 30.5658 340.615 30.7358 341.635 30.8458C342.645 30.9558 343.235 30.8958 344.365 30.6758C345.485 30.4458 346.125 30.2558 347.255 29.7158C348.385 29.1758 348.985 28.8058 350.025 27.9658C351.065 27.1158 351.575 26.5858 352.445 25.4858C353.325 24.3758 353.755 23.7558 354.405 22.4458C355.045 21.1358 355.315 20.3558 355.675 18.9358C356.035 17.5158 356.125 16.6958 356.195 15.3458C356.265 13.9958 356.205 13.2858 356.025 12.1758C355.845 11.0558 355.695 10.4859 355.285 9.77585C354.875 9.06585 354.495 8.71584 353.955 8.60584C353.425 8.49584 353.015 8.66584 352.615 9.22584C352.215 9.78584 352.055 10.3358 351.955 11.4158C351.845 12.4958 351.885 13.2358 352.085 14.6258C352.295 16.0158 352.535 16.9059 352.975 18.3659C353.425 19.8259 353.715 20.5958 354.315 21.9358C354.905 23.2758 355.265 23.9258 355.935 25.0758C356.615 26.2258 356.975 26.7458 357.675 27.6858C358.375 28.6258 358.755 29.0659 359.435 29.7759C360.115 30.4859 360.495 30.7659 361.085 31.2459C361.685 31.7259 361.955 31.9258 362.415 32.1858C362.885 32.4358 363.085 32.4558 363.395 32.5058C363.705 32.5658 363.825 32.5458 363.975 32.4558C364.125 32.3658 364.175 32.2258 364.155 32.0658C364.125 31.8958 364.045 31.8458 363.875 31.6358C363.695 31.4258 363.605 31.3259 363.265 30.9959C362.915 30.6759 362.665 30.4958 362.135 30.0158C361.615 29.5458 361.275 29.2958 360.655 28.6258C360.035 27.9558 359.695 27.5558 359.055 26.6758C358.425 25.7958 358.075 25.2958 357.475 24.2058C356.875 23.1158 356.555 22.4858 356.065 21.2158C355.565 19.9358 355.335 19.1959 355.005 17.8059C354.665 16.4259 354.555 15.5758 354.365 14.2958C354.175 13.0158 354.155 12.3458 354.045 11.4058C353.925 10.4658 353.875 10.0359 353.795 9.61585C353.715 9.18585 353.635 9.12585 353.655 9.27585C353.675 9.41585 353.775 9.71585 353.905 10.3359C354.025 10.9659 354.205 11.4158 354.295 12.3958C354.385 13.3758 354.435 14.0158 354.345 15.2358C354.255 16.4458 354.175 17.1958 353.845 18.4758C353.525 19.7558 353.295 20.4558 352.725 21.6258C352.155 22.7958 351.765 23.3458 350.985 24.3258C350.215 25.2958 349.745 25.7659 348.835 26.4959C347.925 27.2259 347.405 27.5258 346.435 27.9758C345.455 28.4258 344.905 28.5658 343.965 28.7558C343.035 28.9558 342.565 28.9758 341.775 28.9558C340.985 28.9258 340.595 28.8358 340.035 28.6358C339.475 28.4258 339.215 28.3058 338.985 27.9258C338.755 27.5458 338.725 27.3059 338.865 26.7459C339.005 26.1859 339.185 25.7958 339.685 25.1358C340.175 24.4758 340.595 24.0558 341.345 23.4558C342.095 22.8558 342.605 22.5358 343.435 22.1358C344.275 21.7358 344.775 21.5758 345.525 21.4658C346.265 21.3458 346.585 21.3958 347.165 21.5658C347.755 21.7358 347.995 22.0158 348.465 22.3158C348.925 22.6158 349.095 22.8159 349.485 23.0559C349.865 23.2859 350.085 23.5059 350.385 23.4959C350.685 23.4959 350.935 23.3459 351.005 23.0259Z" fill="black" stroke="black"/>
<path d="M11.2708 41.1501C11.0608 41.3101 10.9508 41.4201 10.8008 41.9901C10.6508 42.5701 10.5508 42.9701 10.5208 44.0001C10.4908 45.0401 10.5308 45.7701 10.6508 47.1801C10.7708 48.5801 10.9008 49.5001 11.1208 51.0401C11.3308 52.5901 11.4608 53.4501 11.7108 54.9101C11.9708 56.3601 12.1208 57.0701 12.3908 58.3301C12.6608 59.5801 12.8108 60.1501 13.0808 61.1701C13.3608 62.2001 13.5008 62.6801 13.7508 63.4401C14.0008 64.2001 14.1208 64.5401 14.3308 64.9801C14.5308 65.4301 14.6108 65.5201 14.7808 65.6701C14.9508 65.8201 15.0708 65.7501 15.1708 65.7301C15.2708 65.7101 15.2908 65.5401 15.2608 65.5501C15.2308 65.5601 15.0008 65.7401 15.0108 65.7901C15.0208 65.8501 15.1808 65.9001 15.3108 65.8301C15.4408 65.7701 15.5808 65.7101 15.6508 65.4601C15.7208 65.2101 15.7408 65.0801 15.6708 64.5901C15.6008 64.0901 15.5008 63.7501 15.3008 62.9901C15.1108 62.2301 14.9408 61.7701 14.7008 60.7701C14.4608 59.7701 14.3208 59.2201 14.1008 57.9901C13.8808 56.7601 13.7808 56.0601 13.6108 54.6301C13.4408 53.1901 13.3808 52.3301 13.2508 50.8001C13.1208 49.2701 13.0708 48.3701 12.9508 46.9801C12.8408 45.6001 12.8208 44.8901 12.6908 43.8901C12.5508 42.8901 12.4508 42.5301 12.2908 41.9801C12.1308 41.4401 12.1008 41.3501 11.8908 41.1801C11.6908 41.0101 11.4908 40.9801 11.2708 41.1501Z" fill="black" stroke="black"/>
<path d="M3.21076 58.1299C3.40076 58.2899 3.48077 58.3199 4.03077 58.3499C4.58077 58.3899 4.95075 58.4099 5.95075 58.2999C6.96075 58.1899 7.6508 58.0699 9.0608 57.7999C10.4708 57.5199 11.3908 57.3299 13.0208 56.9299C14.6508 56.5199 15.5808 56.2799 17.2008 55.7799C18.8208 55.2799 19.6807 55.0099 21.1307 54.4299C22.5707 53.8499 23.3208 53.5699 24.4308 52.8899C25.5408 52.2099 26.3208 51.5299 26.7008 51.0299C27.0708 50.5299 26.9108 50.2999 26.3108 50.3999C25.7208 50.4899 24.8908 51.0399 23.7308 51.4999C22.5708 51.9599 21.9108 52.2299 20.4908 52.7099C19.0808 53.1799 18.2508 53.4499 16.6608 53.8699C15.0708 54.2999 14.1508 54.4999 12.5408 54.8299C10.9308 55.1699 10.0208 55.2799 8.62079 55.5499C7.22079 55.8199 6.53079 55.9099 5.55079 56.1899C4.56079 56.4599 4.20075 56.6399 3.70075 56.9199C3.20075 57.1899 3.14078 57.3099 3.04078 57.5499C2.95078 57.7999 3.01076 57.9699 3.21076 58.1299Z" fill="black" stroke="black"/>
<path d="M26.8308 41.15C26.6108 41.35 26.5407 41.51 26.3907 42.14C26.2407 42.77 26.1208 43.21 26.0808 44.3C26.0408 45.39 26.0808 46.17 26.1808 47.6C26.2708 49.03 26.3608 49.94 26.5508 51.45C26.7408 52.97 26.8708 53.79 27.1208 55.18C27.3808 56.57 27.5208 57.25 27.8308 58.39C28.1408 59.54 28.3007 60.06 28.6907 60.92C29.0707 61.77 29.2507 62.14 29.7507 62.66C30.2507 63.19 30.5607 63.4 31.1907 63.54C31.8107 63.69 32.1907 63.67 32.8807 63.38C33.5607 63.09 33.9008 62.78 34.6208 62.08C35.3508 61.39 35.7307 60.84 36.5007 59.9C37.2707 58.96 37.7108 58.31 38.4808 57.38C39.2508 56.45 39.7008 55.93 40.3508 55.24C41.0008 54.56 41.3108 54.25 41.7408 53.97C42.1708 53.7 42.2707 53.69 42.5007 53.86C42.7307 54.04 42.7307 54.3 42.8907 54.83C43.0507 55.35 43.0708 55.75 43.2808 56.51C43.5008 57.26 43.6408 57.77 43.9808 58.58C44.3108 59.4 44.5208 59.85 44.9608 60.58C45.3908 61.31 45.6108 61.66 46.1508 62.23C46.6808 62.8 46.9907 63.08 47.6307 63.44C48.2607 63.8 48.6308 63.92 49.3408 64.03C50.0608 64.13 50.4708 64.14 51.2208 63.96C51.9708 63.77 52.3908 63.59 53.1008 63.1C53.8008 62.61 54.1308 62.24 54.7408 61.53C55.3608 60.82 55.6808 60.37 56.1708 59.54C56.6608 58.71 56.9807 58.12 57.1907 57.38C57.4107 56.64 57.3607 56.17 57.2507 55.83C57.1507 55.48 56.9008 55.43 56.6708 55.66C56.4508 55.9 56.2107 56.28 56.1307 57.01C56.0607 57.73 56.0608 58.39 56.3008 59.28C56.5308 60.18 56.8308 60.71 57.3008 61.48C57.7708 62.25 58.0707 62.6 58.6307 63.15C59.2007 63.7 59.5207 63.94 60.1307 64.23C60.7507 64.52 61.1507 64.57 61.7007 64.6C62.2507 64.64 62.5108 64.54 62.9008 64.38C63.2808 64.23 63.4408 64.07 63.6208 63.84C63.7908 63.61 63.8408 63.43 63.7808 63.23C63.7208 63.03 63.4907 62.9 63.3207 62.84C63.1407 62.78 63.0608 62.89 62.9008 62.92C62.7308 62.96 62.7107 62.99 62.5007 63.01C62.2907 63.03 62.1708 63.07 61.8408 63.02C61.5108 62.97 61.2508 62.98 60.8508 62.77C60.4508 62.57 60.2108 62.43 59.8608 62C59.5108 61.57 59.3108 61.28 59.0908 60.62C58.8708 59.96 58.9207 59.47 58.7507 58.7C58.5807 57.92 58.5107 57.37 58.2507 56.72C57.9907 56.07 57.8107 55.72 57.4507 55.45C57.0807 55.17 56.8408 55.14 56.4208 55.35C56.0008 55.57 55.7508 55.9 55.3408 56.53C54.9208 57.15 54.7808 57.74 54.3508 58.49C53.9308 59.24 53.6908 59.66 53.2108 60.29C52.7408 60.91 52.4808 61.21 51.9908 61.62C51.5008 62.02 51.2507 62.15 50.7607 62.31C50.2807 62.46 50.0208 62.46 49.5608 62.41C49.0908 62.35 48.8608 62.3 48.4308 62.05C48.0008 61.79 47.7908 61.59 47.4208 61.13C47.0508 60.66 46.8908 60.37 46.5908 59.71C46.2908 59.06 46.1808 58.63 45.9108 57.85C45.6408 57.07 45.5508 56.57 45.2408 55.81C44.9208 55.05 44.7708 54.64 44.3308 54.05C43.8908 53.46 43.6308 53.13 43.0208 52.87C42.4008 52.6 42.0307 52.53 41.2607 52.73C40.4807 52.93 40.0207 53.21 39.1407 53.86C38.2707 54.5 37.7607 55.03 36.8807 55.96C36.0007 56.88 35.5008 57.52 34.7408 58.48C33.9808 59.43 33.6108 60 33.0808 60.73C32.5508 61.46 32.4208 61.78 32.0908 62.12C31.7708 62.45 31.7107 62.47 31.4507 62.41C31.2007 62.34 31.0708 62.22 30.8108 61.8C30.5508 61.39 30.4007 61.1 30.1407 60.34C29.8807 59.57 29.7307 59.08 29.5007 57.99C29.2707 56.9 29.1608 56.24 28.9908 54.89C28.8208 53.54 28.7508 52.74 28.6508 51.25C28.5508 49.76 28.5608 48.87 28.4808 47.46C28.4008 46.06 28.3707 45.3 28.2507 44.23C28.1407 43.17 28.0708 42.75 27.9208 42.14C27.7708 41.52 27.7008 41.35 27.4808 41.15C27.2708 40.95 27.0508 40.95 26.8308 41.15Z" fill="black" stroke="black"/>
<path d="M57.0007 45.0301C56.6907 45.0801 56.4107 45.3201 56.3207 45.5801C56.2407 45.8501 56.3707 46.1801 56.5807 46.3801C56.7907 46.5901 57.1107 46.66 57.3907 46.61C57.6807 46.57 57.9107 46.4101 58.0007 46.1601C58.1007 45.9101 58.0608 45.6001 57.8608 45.3801C57.6608 45.1501 57.3007 44.9901 57.0007 45.0301Z" fill="black" stroke="black"/>
<path d="M78.9108 51.1499C78.7008 50.8999 78.4208 50.7999 77.8308 50.6699C77.2308 50.5299 76.7908 50.4499 75.9208 50.4799C75.0408 50.5099 74.4108 50.5799 73.4608 50.8199C72.5008 51.0499 71.9608 51.2499 71.1308 51.6699C70.3108 52.0799 69.8508 52.3199 69.3308 52.8699C68.8208 53.4199 68.6108 53.7599 68.5508 54.3999C68.5008 55.0399 68.6108 55.4299 69.0708 56.0699C69.5208 56.6999 69.9308 57.0299 70.8308 57.5699C71.7208 58.1199 72.3608 58.3399 73.5608 58.8099C74.7508 59.2699 75.5208 59.4799 76.8008 59.8899C78.0708 60.2899 78.8308 60.4799 79.9508 60.8499C81.0708 61.2099 81.6308 61.4099 82.4108 61.7099C83.1908 62.0099 83.5108 62.1599 83.8508 62.3499C84.1908 62.5499 84.2408 62.5699 84.0908 62.6899C83.9508 62.8099 83.7108 62.8099 83.1308 62.9499C82.5508 63.0799 82.1008 63.1699 81.1808 63.3699C80.2508 63.5699 79.6208 63.7199 78.4908 63.9299C77.3708 64.1399 76.6708 64.2599 75.5508 64.3999C74.4208 64.5499 73.8108 64.5999 72.8508 64.6499C71.9008 64.6999 71.4508 64.6599 70.7708 64.6399C70.1008 64.6199 69.8508 64.5399 69.4808 64.5299C69.1208 64.5299 69.0608 64.5999 68.9408 64.6299C68.8108 64.6599 68.9108 64.6499 68.8508 64.6599C68.7808 64.6699 68.6708 64.5899 68.6108 64.6799C68.5508 64.7699 68.4508 64.8899 68.5508 65.0999C68.6508 65.3199 68.7208 65.5199 69.1308 65.7499C69.5308 65.9799 69.8408 66.0899 70.5808 66.2299C71.3308 66.3799 71.8308 66.4399 72.8608 66.4799C73.8908 66.5099 74.5408 66.4899 75.7408 66.4199C76.9408 66.3399 77.6608 66.2799 78.8608 66.0899C80.0608 65.8999 80.7408 65.7999 81.7408 65.4799C82.7508 65.1599 83.2508 64.9599 83.9008 64.4799C84.5408 63.9999 84.8108 63.6599 84.9808 63.0799C85.1408 62.4999 85.0708 62.1399 84.7108 61.5699C84.3508 60.9999 83.9808 60.7299 83.1608 60.2199C82.3408 59.7099 81.7508 59.4999 80.6208 59.0299C79.4808 58.5699 78.7308 58.3399 77.4808 57.8899C76.2208 57.4299 75.4908 57.1799 74.3408 56.7499C73.2008 56.3199 72.6208 56.0899 71.7808 55.7399C70.9408 55.3899 70.5808 55.2299 70.1408 54.9899C69.7108 54.7399 69.6008 54.6799 69.6208 54.4999C69.6508 54.3199 69.8208 54.2899 70.2708 54.0899C70.7208 53.8899 71.1508 53.7199 71.8808 53.4999C72.6108 53.2799 73.0908 53.1399 73.9408 52.9699C74.7908 52.7999 75.3408 52.7899 76.1308 52.6599C76.9108 52.5299 77.3008 52.4799 77.8608 52.3199C78.4108 52.1699 78.6908 52.1099 78.9008 51.8799C79.1108 51.6399 79.1308 51.3899 78.9108 51.1499Z" fill="black" stroke="black"/>
<path d="M125.161 53.38C124.921 53.57 124.811 53.7799 124.661 54.3599C124.501 54.9499 124.401 55.4 124.381 56.31C124.361 57.22 124.401 57.89 124.571 58.91C124.741 59.94 124.931 60.5099 125.241 61.4199C125.561 62.3399 125.751 62.8 126.141 63.47C126.531 64.14 126.811 64.42 127.211 64.79C127.601 65.16 127.811 65.21 128.111 65.31C128.411 65.42 128.551 65.39 128.701 65.31C128.861 65.23 128.881 65.09 128.881 64.94C128.881 64.79 128.801 64.78 128.701 64.56C128.591 64.35 128.551 64.23 128.351 63.86C128.141 63.49 127.901 63.3 127.661 62.7C127.411 62.11 127.291 61.72 127.121 60.9C126.951 60.08 126.911 59.55 126.811 58.61C126.721 57.66 126.741 57.04 126.641 56.19C126.531 55.34 126.451 54.9199 126.291 54.3599C126.131 53.7999 126.071 53.6 125.841 53.4C125.621 53.21 125.391 53.19 125.161 53.38Z" fill="black" stroke="black"/>
<path d="M124.211 42.9299C124.231 42.6699 124.101 42.5599 123.931 42.7099C123.771 42.8499 123.461 43.4099 123.391 43.6599C123.321 43.9199 123.421 44.0899 123.591 43.9799C123.751 43.8699 124.111 43.2699 124.221 43.1199C124.321 42.9699 124.211 43.0199 124.111 43.2199C124.011 43.4199 123.761 43.9599 123.701 44.1199C123.651 44.2899 123.731 44.2699 123.831 44.0299C123.931 43.7999 124.191 43.1999 124.211 42.9299Z" fill="black" stroke="black"/>
<path d="M147.151 51.2903C147.031 51.0003 146.881 50.7703 146.321 50.4903C145.771 50.2103 145.331 50.0003 144.371 49.8803C143.411 49.7703 142.691 49.7703 141.521 49.9203C140.341 50.0803 139.611 50.2803 138.491 50.6403C137.371 51.0103 136.711 51.2303 135.901 51.7603C135.091 52.2903 134.721 52.6203 134.441 53.2803C134.161 53.9503 134.161 54.3703 134.491 55.0703C134.831 55.7703 135.211 56.1303 136.121 56.7803C137.031 57.4403 137.711 57.7503 139.041 58.3403C140.371 58.9303 141.281 59.1903 142.771 59.7303C144.261 60.2703 145.151 60.5403 146.481 61.0503C147.811 61.5603 148.511 61.8603 149.431 62.2803C150.351 62.7003 150.711 62.8703 151.081 63.1603C151.441 63.4603 151.481 63.5403 151.261 63.7603C151.041 63.9803 150.731 64.0203 149.991 64.2503C149.261 64.4903 148.681 64.6603 147.581 64.9403C146.471 65.2303 145.741 65.4303 144.461 65.6803C143.181 65.9203 142.401 66.0403 141.161 66.1903C139.921 66.3303 139.211 66.3403 138.261 66.4003C137.311 66.4603 136.851 66.5103 136.401 66.4803C135.961 66.4503 136.011 66.3703 136.031 66.2403C136.051 66.1103 136.311 66.0603 136.511 65.8303C136.701 65.5903 137.041 65.3703 137.021 65.0803C137.001 64.7903 136.731 64.3903 136.401 64.3803C136.071 64.3603 135.631 64.6003 135.371 65.0103C135.111 65.4103 134.981 65.8603 135.111 66.3903C135.231 66.9103 135.361 67.2803 135.981 67.6403C136.601 68.0003 137.151 68.0703 138.221 68.1803C139.291 68.2903 140.001 68.2603 141.331 68.1803C142.651 68.1103 143.461 68.0203 144.841 67.8003C146.211 67.5703 147.001 67.4503 148.201 67.0503C149.391 66.6603 150.021 66.4003 150.821 65.8303C151.621 65.2603 151.951 64.8903 152.181 64.2203C152.411 63.5503 152.361 63.1503 151.971 62.4703C151.591 61.7903 151.211 61.4803 150.271 60.8303C149.321 60.1803 148.601 59.8403 147.261 59.2203C145.911 58.5903 145.021 58.2903 143.551 57.7003C142.081 57.1103 141.211 56.7803 139.921 56.2603C138.631 55.7403 137.981 55.4803 137.091 55.1003C136.201 54.7203 135.841 54.6003 135.491 54.3503C135.151 54.1003 135.141 54.0503 135.371 53.8403C135.611 53.6403 135.941 53.5603 136.671 53.3303C137.411 53.1003 138.031 52.9303 139.061 52.7003C140.081 52.4703 140.761 52.3303 141.811 52.2003C142.851 52.0703 143.451 52.0803 144.281 52.0503C145.111 52.0103 145.441 52.0403 145.961 52.0103C146.481 51.9903 146.651 52.0703 146.891 51.9303C147.131 51.7803 147.261 51.5803 147.151 51.2903Z" fill="black" stroke="black"/>
<path d="M190.171 52.4701C189.951 52.6601 189.851 52.8501 189.711 53.4501C189.561 54.0601 189.481 54.5101 189.471 55.4701C189.461 56.4401 189.501 57.1501 189.651 58.2901C189.801 59.4301 189.971 60.1301 190.221 61.1701C190.471 62.2001 190.601 62.7101 190.901 63.4701C191.211 64.2401 191.371 64.5801 191.761 65.0001C192.151 65.4201 192.391 65.5301 192.851 65.5701C193.301 65.6001 193.601 65.5201 194.041 65.1601C194.481 64.7901 194.691 64.4901 195.051 63.7301C195.401 62.9801 195.521 62.4101 195.831 61.4001C196.141 60.3901 196.291 59.7201 196.611 58.6801C196.941 57.6501 197.171 57.0101 197.461 56.2401C197.741 55.4601 197.861 55.0901 198.041 54.8001C198.221 54.5101 198.221 54.5501 198.371 54.7901C198.511 55.0401 198.551 55.3901 198.771 56.0301C199.001 56.6801 199.141 57.1901 199.481 58.0201C199.831 58.8601 200.071 59.3701 200.491 60.2101C200.921 61.0401 201.141 61.5001 201.601 62.1901C202.051 62.8801 202.271 63.2101 202.761 63.6501C203.251 64.0901 203.501 64.2601 204.041 64.4101C204.581 64.5601 204.891 64.5801 205.461 64.4001C206.031 64.2201 206.321 64.0301 206.881 63.5101C207.451 62.9901 207.731 62.5801 208.271 61.7801C208.811 60.9901 209.061 60.4301 209.591 59.5301C210.111 58.6401 210.421 58.1101 210.891 57.3201C211.351 56.5401 211.601 56.0801 211.911 55.6001C212.221 55.1301 212.291 54.9601 212.451 54.9301C212.601 54.8901 212.571 55.0301 212.681 55.4201C212.791 55.8101 212.791 56.1901 213.001 56.8901C213.201 57.5901 213.351 58.1001 213.711 58.9301C214.071 59.7601 214.311 60.2301 214.781 61.0201C215.241 61.8101 215.491 62.2101 216.041 62.8801C216.591 63.5601 216.881 63.8901 217.511 64.4001C218.141 64.9101 218.481 65.1401 219.181 65.4301C219.891 65.7301 220.291 65.8301 221.031 65.8901C221.781 65.9501 222.181 65.9201 222.911 65.7201C223.641 65.5201 224.011 65.3501 224.691 64.9001C225.371 64.4501 225.711 64.1501 226.301 63.4801C226.891 62.8201 227.171 62.3801 227.641 61.5701C228.101 60.7501 228.351 60.2601 228.631 59.4201C228.921 58.5701 229.081 58.0001 229.051 57.3501C229.021 56.6901 228.801 56.3201 228.481 56.1401C228.161 55.9601 227.801 56.0601 227.461 56.4501C227.111 56.8501 226.851 57.3101 226.751 58.1101C226.661 58.9001 226.721 59.5501 227.001 60.4301C227.291 61.3101 227.591 61.8201 228.181 62.5201C228.771 63.2201 229.151 63.5201 229.931 63.9401C230.721 64.3601 231.181 64.5001 232.101 64.6101C233.021 64.7301 233.561 64.7001 234.551 64.5001C235.541 64.3001 236.101 64.0901 237.061 63.6101C238.021 63.1201 238.501 62.7901 239.361 62.0701C240.221 61.3601 240.641 60.8901 241.341 60.0401C242.051 59.1901 242.451 58.6701 242.901 57.8101C243.351 56.9601 243.541 56.3601 243.611 55.7701C243.671 55.1701 243.441 54.8401 243.211 54.8601C242.991 54.8801 242.721 55.1201 242.491 55.8701C242.261 56.6301 242.131 57.2801 242.061 58.6101C241.991 59.9501 242.051 60.8801 242.151 62.5301C242.251 64.1901 242.391 65.1601 242.561 66.8701C242.731 68.5801 242.841 69.4401 242.991 71.0701C243.141 72.7001 243.231 73.5401 243.311 75.0201C243.401 76.5101 243.461 77.2601 243.431 78.5101C243.401 79.7601 243.371 80.3201 243.171 81.2901C242.981 82.2501 242.841 82.6701 242.461 83.3401C242.071 84.0001 241.851 84.2401 241.251 84.6101C240.661 84.9801 240.301 85.0701 239.491 85.1701C238.681 85.2701 238.211 85.2501 237.201 85.1201C236.191 84.9801 235.571 84.8401 234.441 84.4801C233.321 84.1301 232.661 83.8801 231.581 83.3501C230.501 82.8101 229.911 82.4601 229.051 81.7901C228.191 81.1201 227.781 80.7201 227.271 79.9801C226.761 79.2401 226.561 78.8601 226.521 78.0801C226.471 77.3101 226.581 76.9101 227.061 76.1001C227.531 75.2801 227.921 74.8401 228.901 73.9901C229.881 73.1501 230.541 72.6901 231.971 71.8801C233.391 71.0701 234.311 70.6501 236.021 69.9401C237.741 69.2401 238.731 68.9101 240.541 68.3601C242.361 67.8201 243.371 67.6001 245.091 67.2201C246.811 66.8501 247.731 66.7401 249.141 66.4901C250.551 66.2301 251.171 66.1601 252.121 65.9401C253.071 65.7201 253.541 65.6201 253.881 65.4101C254.221 65.2001 254.201 65.0201 253.831 64.8701C253.451 64.7201 252.981 64.7001 251.991 64.6801C251.011 64.6501 250.361 64.6201 248.901 64.7601C247.441 64.9001 246.491 65.0401 244.711 65.3901C242.931 65.7301 241.891 65.9601 240.001 66.5001C238.111 67.0301 237.071 67.3501 235.261 68.0801C233.451 68.8001 232.481 69.2201 230.951 70.1301C229.421 71.0301 228.691 71.5501 227.611 72.5901C226.541 73.6301 226.101 74.2201 225.581 75.3301C225.061 76.4501 224.941 77.0601 225.001 78.1701C225.061 79.2701 225.301 79.8401 225.881 80.8501C226.451 81.8501 226.921 82.3501 227.881 83.1901C228.841 84.0401 229.481 84.4401 230.681 85.0801C231.871 85.7201 232.591 86.0001 233.851 86.3801C235.121 86.7701 235.811 86.9201 236.991 87.0101C238.181 87.1101 238.771 87.0901 239.791 86.8701C240.821 86.6401 241.311 86.4401 242.111 85.8901C242.901 85.3401 243.231 84.9601 243.751 84.1101C244.281 83.2601 244.461 82.7501 244.731 81.6401C245.011 80.5401 245.071 79.9201 245.141 78.5801C245.211 77.2401 245.161 76.4701 245.101 74.9401C245.041 73.4101 244.951 72.5701 244.841 70.9301C244.741 69.2901 244.661 68.4201 244.571 66.7201C244.491 65.0301 244.461 64.0601 244.421 62.4401C244.391 60.8201 244.451 59.9301 244.391 58.6201C244.331 57.3201 244.331 56.7001 244.141 55.9201C243.941 55.1301 243.781 54.8501 243.431 54.7001C243.081 54.5401 242.811 54.7201 242.361 55.1401C241.921 55.5601 241.711 56.0601 241.211 56.8001C240.701 57.5301 240.471 58.0601 239.861 58.8301C239.251 59.5901 238.881 60.0101 238.151 60.6301C237.421 61.2401 237.001 61.5001 236.201 61.9101C235.401 62.3201 234.931 62.4701 234.141 62.6601C233.351 62.8501 232.941 62.9101 232.261 62.8701C231.581 62.8301 231.251 62.7601 230.731 62.4701C230.211 62.1901 229.961 61.9701 229.661 61.4501C229.351 60.9201 229.341 60.5201 229.221 59.8501C229.101 59.1801 229.151 58.7101 229.041 58.0801C228.941 57.4501 228.871 57.0801 228.691 56.7101C228.501 56.3401 228.371 56.1801 228.111 56.2401C227.851 56.2901 227.661 56.4901 227.381 56.9901C227.101 57.4801 227.011 57.9801 226.711 58.7101C226.421 59.4301 226.281 59.9001 225.901 60.6101C225.531 61.3201 225.291 61.6901 224.841 62.2501C224.391 62.8201 224.141 63.0701 223.661 63.4401C223.181 63.8001 222.941 63.9301 222.441 64.0901C221.941 64.2401 221.681 64.2501 221.161 64.2101C220.641 64.1801 220.351 64.1201 219.841 63.9001C219.331 63.6801 219.081 63.5201 218.601 63.1001C218.131 62.6801 217.881 62.4001 217.461 61.8001C217.041 61.2101 216.841 60.8501 216.491 60.1101C216.151 59.3701 216.041 58.9101 215.721 58.1001C215.411 57.3001 215.301 56.7901 214.921 56.0901C214.531 55.3801 214.311 55.0101 213.811 54.5801C213.321 54.1501 213.021 53.9601 212.421 53.9401C211.831 53.9201 211.461 54.0401 210.821 54.4801C210.181 54.9301 209.851 55.3901 209.231 56.1801C208.611 56.9601 208.291 57.5101 207.721 58.3901C207.161 59.2801 206.861 59.8201 206.411 60.6001C205.951 61.3801 205.731 61.7801 205.431 62.2901C205.121 62.8101 205.071 62.9901 204.871 63.1901C204.671 63.3801 204.631 63.3701 204.431 63.2701C204.241 63.1601 204.141 63.0401 203.891 62.6501C203.641 62.2601 203.481 61.9601 203.181 61.3001C202.881 60.6501 202.711 60.1901 202.381 59.3601C202.051 58.5201 201.931 57.9801 201.541 57.1301C201.141 56.2701 200.931 55.7501 200.421 55.1001C199.901 54.4501 199.571 54.1201 198.971 53.8701C198.361 53.6301 198.011 53.5801 197.381 53.8801C196.741 54.1701 196.371 54.5301 195.801 55.3401C195.231 56.1501 194.961 56.8401 194.521 57.9201C194.081 58.9901 193.891 59.6901 193.591 60.7201C193.291 61.7501 193.161 62.3101 193.021 63.0501C192.871 63.7901 192.891 64.0601 192.871 64.4101C192.861 64.7601 192.931 64.8101 192.921 64.8001C192.911 64.7901 192.911 64.7101 192.841 64.3501C192.761 63.9901 192.651 63.7101 192.531 63.0001C192.401 62.2901 192.331 61.8001 192.221 60.8101C192.111 59.8201 192.081 59.1301 191.981 58.0301C191.881 56.9401 191.851 56.2501 191.711 55.3201C191.581 54.4001 191.471 53.9801 191.291 53.4101C191.121 52.8401 191.071 52.6601 190.841 52.4801C190.621 52.2901 190.401 52.2701 190.171 52.4701Z" fill="black" stroke="black"/>
<path d="M293.661 56.9003C293.441 57.1203 293.341 57.3103 293.211 58.0103C293.081 58.7103 293.011 59.2003 293.021 60.4103C293.021 61.6103 293.091 62.4503 293.221 64.0303C293.361 65.6203 293.491 66.6103 293.681 68.3303C293.861 70.0603 293.971 71.0303 294.161 72.6703C294.341 74.3203 294.461 75.1603 294.611 76.5503C294.761 77.9403 294.801 78.6003 294.931 79.6303C295.051 80.6503 295.081 81.1303 295.241 81.6803C295.411 82.2203 295.591 82.3703 295.751 82.3503C295.911 82.3303 296.051 82.1703 296.041 81.5703C296.041 80.9603 295.971 80.4803 295.711 79.3303C295.451 78.1803 295.171 77.3603 294.751 75.8003C294.331 74.2403 294.001 73.2903 293.621 71.5503C293.241 69.8103 293.031 68.8403 292.861 67.1103C292.681 65.3803 292.651 64.4803 292.731 62.8903C292.811 61.3103 292.921 60.5203 293.251 59.1703C293.581 57.8203 293.811 57.1803 294.361 56.1403C294.921 55.1103 295.281 54.6603 296.031 53.9903C296.791 53.3303 297.251 53.0903 298.141 52.8103C299.031 52.5303 299.561 52.5103 300.491 52.6103C301.431 52.7003 301.961 52.8803 302.811 53.2903C303.661 53.6903 304.111 54.0203 304.741 54.6403C305.371 55.2503 305.651 55.6503 305.961 56.3503C306.271 57.0603 306.341 57.4603 306.291 58.1703C306.231 58.8803 306.111 59.2603 305.681 59.9103C305.261 60.5503 304.931 60.8603 304.171 61.4103C303.421 61.9503 302.891 62.2103 301.921 62.6203C300.941 63.0403 300.321 63.2303 299.281 63.4703C298.241 63.7203 297.621 63.7803 296.711 63.8703C295.791 63.9703 295.311 63.9503 294.711 63.9503C294.111 63.9403 293.901 63.9303 293.711 63.8503C293.521 63.7703 293.541 63.7203 293.761 63.5303C293.981 63.3303 294.181 63.2203 294.821 62.8903C295.461 62.5603 295.911 62.3103 296.961 61.8803C298.021 61.4503 298.711 61.1703 300.081 60.7403C301.461 60.3203 302.291 60.1203 303.851 59.7403C305.401 59.3703 306.281 59.2103 307.861 58.8803C309.431 58.5603 310.281 58.4103 311.731 58.1203C313.171 57.8203 313.881 57.7003 315.111 57.3903C316.331 57.0903 316.901 56.9503 317.841 56.6003C318.771 56.2503 319.191 56.0803 319.781 55.6503C320.381 55.2203 320.611 54.9703 320.821 54.4403C321.021 53.9103 321.041 53.5403 320.821 53.0003C320.601 52.4603 320.331 52.1003 319.741 51.7403C319.151 51.3703 318.691 51.2303 317.881 51.1603C317.071 51.1003 316.561 51.1503 315.691 51.4103C314.811 51.6703 314.261 51.8803 313.501 52.4503C312.751 53.0203 312.351 53.4503 311.901 54.2603C311.441 55.0703 311.271 55.5903 311.221 56.4903C311.181 57.3903 311.251 57.9303 311.671 58.7603C312.081 59.6003 312.481 60.0403 313.311 60.6703C314.141 61.3003 314.731 61.5603 315.821 61.9003C316.911 62.2403 317.571 62.3303 318.751 62.3803C319.931 62.4303 320.591 62.3603 321.711 62.1703C322.821 61.9703 323.401 61.8203 324.321 61.4103C325.241 61.0103 325.671 60.7403 326.311 60.1503C326.941 59.5503 327.221 59.1903 327.491 58.4503C327.771 57.7103 327.821 57.2403 327.711 56.4603C327.591 55.6703 327.371 55.2203 326.941 54.5403C326.501 53.8503 326.131 53.5203 325.531 53.0403C324.941 52.5603 324.531 52.3203 323.951 52.1403C323.371 51.9603 322.991 51.9903 322.621 52.1203C322.261 52.2403 322.211 52.4803 322.121 52.7603C322.031 53.0503 322.051 53.3303 322.161 53.5303C322.271 53.7203 322.471 53.9403 322.671 53.7503C322.871 53.5603 323.131 52.8303 323.161 52.5703C323.191 52.3103 322.951 52.4003 322.821 52.4503C322.681 52.5003 322.571 52.6603 322.491 52.8203C322.421 52.9903 322.321 53.0603 322.451 53.2603C322.591 53.4603 322.791 53.5603 323.161 53.8203C323.541 54.0903 323.861 54.2103 324.311 54.5703C324.761 54.9303 325.051 55.1703 325.411 55.6103C325.781 56.0603 325.981 56.3203 326.121 56.7803C326.261 57.2403 326.281 57.4803 326.111 57.9203C325.941 58.3603 325.771 58.5803 325.281 58.9603C324.801 59.3303 324.451 59.5203 323.681 59.7903C322.911 60.0603 322.391 60.1803 321.421 60.3003C320.461 60.4303 319.851 60.4803 318.851 60.4203C317.841 60.3703 317.281 60.2803 316.381 60.0303C315.481 59.7703 315.011 59.5703 314.361 59.1603C313.711 58.7603 313.421 58.5003 313.121 57.9903C312.821 57.4803 312.811 57.1703 312.871 56.6103C312.931 56.0603 313.081 55.7103 313.431 55.1903C313.781 54.6703 314.061 54.3903 314.621 54.0203C315.181 53.6503 315.611 53.5103 316.241 53.3403C316.871 53.1703 317.221 53.1703 317.771 53.1803C318.311 53.1803 318.581 53.2903 318.971 53.3803C319.371 53.4703 319.571 53.5203 319.751 53.6403C319.921 53.7503 319.991 53.8003 319.851 53.9603C319.711 54.1203 319.571 54.2203 319.071 54.4503C318.561 54.6703 318.201 54.8203 317.331 55.0803C316.461 55.3303 315.911 55.4703 314.721 55.7203C313.531 55.9703 312.831 56.0703 311.381 56.3203C309.941 56.5803 309.091 56.7003 307.491 56.9903C305.891 57.2803 305.001 57.4303 303.401 57.7703C301.801 58.1103 300.931 58.2803 299.471 58.7003C298.011 59.1203 297.251 59.3503 296.101 59.8903C294.951 60.4203 294.411 60.7303 293.721 61.3603C293.031 61.9903 292.821 62.4003 292.671 63.0403C292.521 63.6803 292.621 64.0703 292.981 64.5503C293.331 65.0403 293.681 65.2303 294.441 65.4703C295.211 65.7003 295.761 65.7403 296.811 65.7203C297.871 65.7003 298.541 65.6403 299.721 65.3803C300.901 65.1203 301.581 64.9203 302.701 64.4203C303.821 63.9203 304.421 63.6003 305.311 62.8703C306.201 62.1503 306.621 61.7003 307.141 60.7803C307.661 59.8703 307.831 59.3003 307.911 58.2903C307.981 57.2803 307.901 56.7003 307.521 55.7203C307.131 54.7403 306.791 54.1903 306.001 53.3803C305.221 52.5703 304.651 52.1603 303.581 51.6503C302.511 51.1503 301.831 50.9503 300.641 50.8703C299.451 50.7903 298.771 50.8603 297.631 51.2403C296.501 51.6303 295.911 51.9603 294.971 52.7803C294.031 53.6003 293.601 54.1503 292.921 55.3503C292.251 56.5403 291.991 57.2703 291.591 58.7503C291.201 60.2403 291.071 61.0803 290.941 62.7803C290.811 64.4803 290.821 65.4403 290.941 67.2703C291.071 69.1003 291.241 70.1303 291.551 71.9503C291.861 73.7703 292.101 74.7803 292.501 76.3803C292.901 77.9903 293.101 78.8503 293.551 79.9903C294.001 81.1403 294.281 81.5903 294.731 82.1103C295.191 82.6303 295.491 82.6703 295.831 82.5803C296.181 82.4903 296.321 82.2803 296.471 81.6603C296.621 81.0503 296.591 80.5703 296.571 79.5103C296.551 78.4603 296.481 77.7903 296.381 76.3903C296.281 74.9803 296.201 74.1403 296.081 72.5003C295.961 70.8503 295.901 69.8803 295.781 68.1503C295.671 66.4203 295.611 65.4303 295.491 63.8503C295.371 62.2803 295.331 61.4403 295.181 60.2703C295.031 59.0903 294.911 58.6303 294.741 57.9603C294.561 57.2903 294.521 57.1103 294.311 56.9003C294.091 56.6903 293.871 56.6803 293.661 56.9003Z" fill="black" stroke="black"/>
<path d="M335.991 53.1602C335.711 53.2602 335.531 53.4002 335.251 53.8602C334.981 54.3202 334.791 54.7002 334.621 55.4602C334.441 56.2202 334.401 56.7702 334.381 57.6602C334.361 58.5502 334.431 59.1002 334.531 59.9202C334.621 60.7302 334.641 61.1602 334.851 61.7302C335.061 62.3002 335.241 62.5702 335.561 62.7602C335.881 62.9502 336.161 62.9002 336.441 62.6702C336.721 62.4402 336.861 62.1702 336.961 61.6102C337.061 61.0502 337.011 60.6302 336.941 59.8702C336.881 59.1002 336.721 58.6002 336.631 57.7802C336.541 56.9602 336.461 56.4902 336.491 55.7802C336.521 55.0702 336.571 54.7502 336.801 54.2402C337.021 53.7302 337.191 53.5502 337.631 53.2302C338.081 52.9202 338.351 52.8402 339.011 52.6502C339.671 52.4702 340.091 52.4102 340.941 52.3102C341.801 52.2102 342.291 52.1902 343.281 52.1502C344.261 52.1202 344.811 52.1402 345.861 52.1502C346.911 52.1502 347.501 52.1802 348.531 52.1802C349.571 52.1802 350.111 52.2402 351.041 52.1502C351.971 52.0602 352.511 51.9502 353.201 51.7302C353.881 51.5102 354.231 51.2902 354.461 51.0302C354.681 50.7702 354.621 50.5802 354.331 50.4302C354.031 50.2802 353.661 50.3202 352.981 50.2902C352.311 50.2702 351.841 50.3102 350.951 50.3102C350.061 50.3102 349.561 50.3202 348.551 50.3002C347.541 50.2802 346.961 50.2302 345.891 50.2102C344.821 50.1802 344.251 50.1502 343.211 50.1902C342.161 50.2202 341.621 50.2302 340.671 50.3902C339.711 50.5502 339.231 50.6502 338.431 50.9702C337.631 51.2902 337.281 51.4802 336.661 51.9902C336.051 52.4902 335.771 52.7902 335.371 53.5002C334.961 54.2002 334.831 54.6502 334.641 55.5202C334.451 56.3902 334.461 56.9302 334.421 57.8502C334.391 58.7702 334.361 59.3302 334.471 60.1402C334.581 60.9502 334.721 61.3902 334.981 61.9002C335.231 62.4002 335.471 62.5502 335.751 62.6702C336.031 62.7802 336.201 62.7102 336.361 62.4702C336.531 62.2402 336.541 62.0102 336.581 61.4702C336.621 60.9402 336.551 60.5602 336.571 59.8102C336.591 59.0702 336.611 58.5502 336.661 57.7502C336.711 56.9402 336.771 56.4702 336.801 55.7702C336.841 55.0802 336.861 54.7502 336.831 54.2702C336.801 53.8002 336.811 53.6102 336.641 53.3902C336.481 53.1702 336.271 53.0702 335.991 53.1602Z" fill="black" stroke="black"/>
<path d="M358.951 41.2602C358.681 41.4002 358.511 41.5402 358.221 42.1302C357.941 42.7302 357.711 43.1602 357.531 44.2302C357.341 45.3002 357.311 46.1002 357.301 47.5002C357.291 48.9002 357.351 49.7602 357.481 51.2402C357.621 52.7302 357.751 53.5402 357.971 54.9302C358.201 56.3102 358.351 57.0002 358.601 58.1702C358.851 59.3402 359.011 59.8602 359.241 60.7802C359.481 61.7102 359.591 62.1502 359.781 62.7902C359.961 63.4302 360.041 63.6402 360.181 63.9802C360.321 64.3102 360.351 64.3902 360.471 64.4702C360.601 64.5502 360.661 64.4702 360.801 64.3802C360.941 64.3002 361.121 64.1302 361.161 64.0502C361.201 63.9702 361.241 63.8902 361.001 63.9802C360.771 64.0602 360.181 64.3002 359.991 64.4802C359.801 64.6602 359.911 64.8102 360.071 64.8702C360.221 64.9402 360.531 64.9002 360.761 64.8202C361.001 64.7502 361.111 64.7102 361.241 64.4902C361.371 64.2802 361.421 64.1602 361.421 63.7502C361.431 63.3402 361.381 63.1102 361.271 62.4402C361.161 61.7802 361.051 61.3302 360.861 60.4102C360.671 59.4902 360.511 58.9802 360.311 57.8302C360.111 56.6802 360.001 56.0202 359.851 54.6702C359.701 53.3302 359.621 52.5302 359.561 51.1002C359.511 49.6802 359.551 48.8602 359.581 47.5302C359.601 46.2002 359.671 45.4702 359.701 44.4502C359.721 43.4402 359.741 43.0602 359.721 42.4602C359.691 41.8602 359.731 41.7002 359.581 41.4602C359.421 41.2202 359.221 41.1302 358.951 41.2602Z" fill="black" stroke="black"/>
<path d="M353.391 58.5501C353.621 58.7101 353.771 58.7401 354.351 58.7501C354.931 58.7701 355.301 58.7401 356.291 58.6201C357.281 58.5001 357.921 58.3701 359.291 58.1601C360.671 57.9501 361.561 57.8101 363.171 57.5701C364.781 57.3301 365.701 57.2201 367.351 56.9501C369.001 56.6901 369.971 56.5501 371.411 56.2601C372.861 55.9701 373.571 55.8101 374.581 55.5101C375.591 55.2001 376.111 55.0101 376.461 54.7401C376.821 54.4701 376.781 54.2901 376.361 54.1701C375.941 54.0501 375.401 54.0901 374.351 54.1401C373.301 54.1801 372.581 54.2201 371.121 54.3901C369.671 54.5501 368.711 54.7301 367.061 54.9501C365.421 55.1701 364.511 55.2701 362.881 55.4601C361.261 55.6601 360.351 55.7201 358.951 55.9301C357.551 56.1501 356.871 56.2701 355.881 56.5401C354.891 56.8101 354.531 57.0101 354.001 57.2801C353.471 57.5601 353.351 57.6701 353.231 57.9301C353.111 58.1801 353.171 58.3801 353.391 58.5501Z" fill="black" stroke="black"/>
<path d="M384.411 46.7399C384.461 46.4499 384.431 46.1199 384.101 45.7999C383.771 45.4799 383.381 45.1999 382.761 45.1599C382.131 45.1199 381.671 45.1599 380.961 45.5999C380.251 46.0399 379.871 46.3699 379.191 47.3499C378.521 48.3299 378.131 49.0399 377.601 50.4999C377.071 51.9699 376.831 52.9199 376.541 54.6799C376.251 56.4399 376.151 57.4699 376.131 59.2899C376.111 61.1199 376.211 62.1099 376.431 63.8099C376.661 65.4999 376.881 66.3299 377.271 67.7699C377.661 69.1999 377.921 69.8699 378.381 70.9799C378.831 72.0799 379.141 72.5999 379.551 73.2899C379.961 73.9899 380.131 74.1799 380.441 74.4699C380.751 74.7599 380.921 74.7299 381.101 74.7599C381.281 74.7799 381.291 74.6599 381.331 74.6099C381.371 74.5699 381.281 74.5699 381.301 74.5299C381.311 74.4999 381.401 74.5699 381.421 74.4399C381.431 74.3099 381.491 74.2399 381.391 73.8799C381.291 73.5099 381.191 73.3199 380.901 72.6199C380.611 71.9099 380.341 71.4199 379.951 70.3699C379.561 69.3099 379.301 68.6899 378.961 67.3299C378.631 65.9699 378.441 65.1799 378.271 63.5899C378.101 61.9899 378.041 61.0499 378.111 59.3399C378.171 57.6399 378.301 56.6699 378.611 55.0499C378.921 53.4299 379.191 52.5599 379.661 51.2299C380.121 49.9099 380.471 49.2799 380.931 48.4399C381.401 47.5899 381.651 47.3299 381.981 46.9999C382.321 46.6699 382.401 46.7499 382.621 46.7799C382.851 46.8099 382.861 47.0499 383.101 47.1499C383.341 47.2599 383.561 47.3799 383.821 47.2899C384.091 47.2099 384.351 47.0399 384.411 46.7399Z" fill="black" stroke="black"/>
<path d="M371.071 64.5901C371.331 64.7101 371.491 64.6702 372.121 64.6002C372.761 64.5202 373.151 64.4402 374.251 64.2302C375.351 64.0202 376.091 63.8302 377.621 63.5402C379.141 63.2602 380.131 63.1102 381.891 62.8202C383.661 62.5202 384.681 62.3602 386.441 62.0702C388.211 61.7802 389.141 61.6502 390.711 61.3802C392.281 61.1102 393.051 60.9902 394.311 60.7302C395.571 60.4702 396.151 60.3601 397.021 60.0801C397.901 59.7901 398.241 59.6702 398.671 59.3202C399.111 58.9602 399.221 58.7102 399.201 58.2902C399.181 57.8802 399.021 57.5601 398.571 57.2501C398.121 56.9401 397.721 56.7601 396.951 56.7401C396.171 56.7301 395.591 56.8301 394.701 57.1701C393.811 57.5101 393.261 57.8302 392.481 58.4502C391.711 59.0602 391.311 59.4701 390.831 60.2401C390.341 61.0101 390.121 61.4901 390.071 62.3001C390.031 63.1101 390.141 63.6001 390.591 64.3001C391.051 65.0001 391.471 65.3501 392.331 65.8001C393.181 66.2501 393.761 66.4101 394.871 66.5601C395.971 66.7101 396.661 66.7001 397.851 66.5601C399.041 66.4301 399.731 66.2801 400.821 65.8701C401.921 65.4701 402.481 65.1602 403.321 64.5402C404.171 63.9102 404.551 63.5201 405.041 62.7401C405.521 61.9601 405.701 61.4701 405.761 60.6401C405.821 59.8101 405.701 59.3401 405.341 58.6101C404.981 57.8901 404.601 57.5002 403.941 57.0102C403.281 56.5302 402.771 56.3502 402.061 56.2002C401.341 56.0502 400.881 56.1402 400.351 56.2602C399.821 56.3902 399.561 56.6001 399.391 56.8401C399.221 57.0701 399.291 57.2601 399.481 57.4401C399.671 57.6201 399.941 57.6101 400.361 57.7401C400.781 57.8601 401.081 57.9001 401.591 58.0601C402.111 58.2101 402.461 58.2601 402.931 58.5301C403.401 58.8001 403.681 58.9901 403.941 59.3901C404.211 59.7901 404.301 60.0201 404.251 60.5201C404.211 61.0101 404.091 61.3402 403.711 61.8502C403.331 62.3702 403.041 62.6701 402.331 63.1101C401.631 63.5501 401.151 63.7701 400.211 64.0601C399.271 64.3501 398.651 64.4501 397.631 64.5501C396.611 64.6501 396.011 64.6301 395.101 64.5501C394.191 64.4701 393.741 64.3701 393.081 64.1401C392.421 63.9101 392.111 63.7401 391.801 63.4001C391.491 63.0701 391.431 62.8801 391.521 62.4601C391.611 62.0401 391.831 61.7701 392.271 61.3101C392.701 60.8401 393.041 60.5302 393.691 60.1302C394.331 59.7302 394.801 59.5501 395.491 59.3001C396.191 59.0501 396.611 59.0302 397.151 58.8802C397.701 58.7302 397.931 58.6802 398.221 58.5702C398.521 58.4602 398.641 58.3601 398.631 58.3101C398.621 58.2601 398.571 58.2602 398.181 58.3202C397.781 58.3702 397.481 58.4502 396.651 58.6002C395.811 58.7502 395.251 58.8702 394.011 59.0702C392.761 59.2602 392.011 59.3701 390.441 59.5801C388.871 59.7901 387.931 59.8901 386.161 60.1201C384.391 60.3401 383.371 60.4701 381.581 60.7101C379.791 60.9501 378.781 61.0302 377.201 61.3202C375.631 61.6102 374.831 61.8001 373.711 62.1701C372.591 62.5401 372.191 62.8201 371.611 63.1801C371.031 63.5501 370.921 63.7201 370.811 64.0001C370.701 64.2801 370.811 64.4701 371.071 64.5901Z" fill="black" stroke="black"/>
<path d="M414.621 46.49C414.361 46.64 414.231 46.79 414.001 47.36C413.761 47.92 413.591 48.31 413.441 49.32C413.281 50.33 413.221 51.08 413.211 52.4C413.201 53.72 413.251 54.56 413.401 55.94C413.541 57.33 413.661 58.07 413.931 59.34C414.201 60.6 414.371 61.22 414.751 62.27C415.141 63.32 415.381 63.79 415.871 64.57C416.361 65.35 416.651 65.68 417.211 66.18C417.771 66.69 418.081 66.93 418.671 67.09C419.251 67.24 419.821 67.15 420.131 66.98C420.441 66.8 420.411 66.46 420.221 66.23C420.021 66 419.561 66.05 419.161 65.82C418.771 65.59 418.641 65.52 418.251 65.1C417.871 64.69 417.621 64.42 417.251 63.75C416.871 63.07 416.661 62.67 416.371 61.72C416.071 60.77 415.941 60.18 415.761 59C415.591 57.81 415.531 57.11 415.481 55.79C415.431 54.48 415.481 53.69 415.511 52.43C415.541 51.17 415.611 50.47 415.611 49.5C415.611 48.52 415.581 48.15 415.511 47.58C415.441 47 415.441 46.84 415.261 46.62C415.081 46.4 414.871 46.34 414.621 46.49Z" fill="black" stroke="black"/>
<path d="M427.431 58.0899C427.201 58.2699 427.131 58.4899 426.991 58.9899C426.861 59.4799 426.761 59.8499 426.751 60.5899C426.741 61.3199 426.801 61.8599 426.941 62.6599C427.091 63.4699 427.231 63.9299 427.471 64.6099C427.711 65.2999 427.881 65.6399 428.151 66.0999C428.411 66.5499 428.541 66.6899 428.791 66.8999C429.051 67.0999 429.221 67.1199 429.411 67.1299C429.611 67.1499 429.701 67.0599 429.761 66.9699C429.811 66.8799 429.691 66.7499 429.681 66.6799C429.671 66.5999 429.691 66.6799 429.711 66.5999C429.731 66.5199 429.791 66.4899 429.781 66.2699C429.761 66.0499 429.721 65.9399 429.641 65.5099C429.561 65.0899 429.471 64.7699 429.371 64.1299C429.281 63.4999 429.251 63.0799 429.171 62.3399C429.081 61.5999 429.061 61.1199 428.961 60.4399C428.861 59.7599 428.811 59.4199 428.651 58.9399C428.491 58.4699 428.391 58.2299 428.151 58.0599C427.911 57.8899 427.661 57.8999 427.431 58.0899Z" fill="black" stroke="black"/>
<path d="M429.141 48.8501C429.381 48.7401 429.491 48.5701 429.401 48.6001C429.321 48.6401 428.891 48.9101 428.721 49.0201C428.551 49.1301 428.521 49.3001 428.561 49.1501C428.611 49.0001 428.981 48.4601 428.951 48.2801C428.921 48.1001 428.661 48.1101 428.421 48.2401C428.181 48.3801 427.821 48.7801 427.761 48.9601C427.711 49.1401 427.891 49.1701 428.161 49.1401C428.441 49.1201 428.891 48.9601 429.141 48.8501Z" fill="black" stroke="black"/>
<path d="M448.091 57.7503C448.041 57.4703 447.951 57.2403 447.521 56.9503C447.091 56.6703 446.721 56.4303 445.931 56.3303C445.141 56.2303 444.581 56.2203 443.581 56.4603C442.591 56.7003 441.981 56.9503 440.971 57.5203C439.961 58.1003 439.351 58.5103 438.541 59.3403C437.721 60.1703 437.291 60.7203 436.901 61.6903C436.511 62.6603 436.431 63.2503 436.591 64.1903C436.761 65.1203 437.011 65.6303 437.721 66.3703C438.421 67.1103 438.981 67.4403 440.111 67.8803C441.251 68.3203 442.021 68.4603 443.391 68.5803C444.771 68.6903 445.581 68.6403 447.001 68.4703C448.431 68.2903 449.231 68.1103 450.511 67.7003C451.791 67.3003 452.441 67.0403 453.411 66.4403C454.381 65.8503 454.801 65.5003 455.361 64.7403C455.921 63.9803 456.131 63.5103 456.211 62.6503C456.301 61.8003 456.191 61.2803 455.791 60.4703C455.381 59.6603 454.971 59.2403 454.201 58.6203C453.431 58.0103 452.841 57.7303 451.921 57.4203C451.001 57.1003 450.391 57.0403 449.601 57.0503C448.801 57.0603 448.281 57.2503 447.951 57.4703C447.621 57.7003 447.651 57.9203 447.931 58.1603C448.211 58.4003 448.691 58.4403 449.351 58.6703C450.001 58.9103 450.461 59.0303 451.211 59.3303C451.961 59.6403 452.451 59.8003 453.081 60.2003C453.721 60.5903 454.041 60.8203 454.391 61.2903C454.731 61.7603 454.841 62.0303 454.801 62.5303C454.771 63.0303 454.661 63.3303 454.221 63.8103C453.771 64.3003 453.441 64.5603 452.591 64.9703C451.751 65.3803 451.151 65.5803 449.991 65.8803C448.831 66.1903 448.061 66.3403 446.781 66.4703C445.491 66.6103 444.761 66.6203 443.551 66.5403C442.341 66.4603 441.681 66.3403 440.731 66.0703C439.781 65.8003 439.341 65.6303 438.801 65.2103C438.261 64.7903 438.101 64.5203 438.031 63.9603C437.951 63.4003 438.051 63.0503 438.431 62.4203C438.801 61.7803 439.191 61.3903 439.901 60.7803C440.621 60.1703 441.151 59.8203 441.991 59.3703C442.831 58.9203 443.341 58.7403 444.101 58.5403C444.871 58.3403 445.231 58.4003 445.811 58.3803C446.391 58.3703 446.621 58.4603 447.011 58.4503C447.401 58.4503 447.551 58.5003 447.771 58.3603C447.981 58.2203 448.141 58.0303 448.091 57.7503Z" fill="black" stroke="black"/>
</svg>
