<svg xmlns="http://www.w3.org/2000/svg" viewBox="0 0 572.48 442.05">
  <defs>
    <style>
      .cls-5{fill:#102b5f}.cls-6{fill:#0f2a5e}
    </style>
  </defs>
  <g id="Layer_2" data-name="Layer 2">
    <g id="Layer_1-2" data-name="Layer 1">
      <path fill="#f27322" d="M164.72 242.26c1.7-.08 3-.2 4.29-.2 32.16 0 64.32.07 96.47-.11 3.71 0 5.22 1.38 6.53 4.52 3.56 8.52 7.44 16.91 11.67 26.44 4.13-9.32 8-17.54 11.4-25.93 1.53-3.77 3.59-5.06 7.75-5 31.49.19 63 .1 94.47.1h5.7c-.75 1.92-1.3 3.41-1.92 4.88q-39.69 95.31-79.33 190.64c-1.32 3.18-2.81 4.51-6.48 4.48-21.15-.21-42.32-.17-63.48 0-3.1 0-4.69-.83-5.92-3.8q-39.87-96-79.92-192c-.49-1.28-.77-2.52-1.23-4.02Z"/>
      <path fill="#f27321" d="M499.62.2v81.67c-8.83 0-17.45.16-26.07-.09-3.19-.09-4.62 1-5.78 3.92-6.08 15.3-12.45 30.49-18.56 45.78-1.06 2.65-2.26 3.9-5.36 3.89-32.17-.12-64.35-.07-96.52-.09-1.12 0-2.25-.22-4.07-.41l22.14-52.72h-30.2V.2ZM67.93 0h164.49v81.65h-30.66L224.14 135c-2.13.13-3.68.31-5.24.31-31.48 0-63-.05-94.45.1-3.57 0-5.3-1.1-6.6-4.39-6-15.15-12.26-30.18-18.26-45.32-1.16-3-2.71-4-5.87-3.88-8.47.23-17 .08-25.79.08Z"/>
      <path fill="#122c60" d="M415.55 149h16.23l14.39 41.13 1-.13v-40.94h13.33v81.5h-13.43l-17.7-48.84-1 .29v48.61h-12.82ZM447 194.52l.65-.05-.15-3.47-1 .1c.16 1.16.34 2.29.5 3.42Z"/>
      <path fill="#0e295d" d="M0 148.9c8.12 0 16-.27 23.75.06 11.46.49 20.39 7.3 23.87 18.79a72.27 72.27 0 0 1-1.2 46.59c-4.16 11.4-12.42 16.55-24.67 16.56H0ZM16.42 216c11.16 1.49 14.65-.8 15.33-11.62a221.46 221.46 0 0 0-.17-29.82c-.7-9.57-5.07-12.36-15.16-11.08Z"/>
      <path d="m329.91 179.34-15.64 1.26c-.86-4.33-1.43-8.42-2.53-12.37-1-3.48-3.33-5.59-7.31-5.53s-5.69 2.4-6.65 5.64a24.94 24.94 0 0 0-1.35 6.82c0 11.28 0 22.57.46 33.84.17 4 1.7 7.94 7.05 8.06 4.92.11 7.33-1.91 8.61-7.77.57-2.59.83-5.25 1.31-8.34l13.63 1.12c1.21 14.37-6 26.39-17.35 29.2-12.63 3.13-24-2-28.25-14.25a77.6 77.6 0 0 1 .45-54.22c4.62-12.26 16.16-17.38 28.88-14.21 5.68 1.41 10.4 4.42 12.49 9.78 2.55 6.51 4.03 13.44 6.2 20.97Zm178.17 21.6 13.26 1.1c3.35 19.27-12.82 34.22-31.16 28.91-8.37-2.42-12.78-8.65-15.28-16.41-3.8-11.79-4.14-24-2.32-36a64.79 64.79 0 0 1 6.67-20.58c4.8-8.95 13.74-11 23.3-9.87 8.83 1 14.64 6.22 17.22 14.55 1.64 5.28 2.33 10.85 3.54 16.76l-15 1.28c-.75-3.95-1.31-7.84-2.25-11.64s-3-6.21-7.26-6.28-6.4 2.64-7.14 6.3a112.26 112.26 0 0 0-.26 42.1c.63 3.53 2.66 5.93 6.81 6 4.4.06 6.89-2 7.84-6.11.74-3.28 1.31-6.53 2.03-10.11Zm-236.41-34.42-12.37 5.57c-.83-1.74-1.54-3.38-2.37-5-1.75-3.3-4.67-5.24-8.19-4.21a9.58 9.58 0 0 0-5.56 4.76c-1.4 3.31-.87 7.13 2.57 9.32a82.92 82.92 0 0 0 10.58 5.51c15.38 6.88 19.24 18.21 15.07 33.54-2.78 10.24-11.6 15.83-23.34 15.85-11.9 0-19.46-5.26-23-16.14-.56-1.72-.86-3.52-1.41-5.79l13.35-4.72c.81 2.19 1.45 4.18 2.27 6.09 1.88 4.38 5.39 6.85 9.91 5.5a11.16 11.16 0 0 0 6.4-5.77c1.69-4.26-.15-8.13-4.39-10.45s-9-4.44-13.12-7.15c-11.91-7.77-15.09-22.9-7.61-35.06 5.22-8.5 13.06-11.59 22.61-10.3 10.45 1.4 15.69 8.46 18.6 18.45Z" class="cls-5"/>
      <path d="M71.06 149h17.78c6.12 27.12 12.23 54.18 18.43 81.61H90.15c-1.15-5.61-2.26-11.38-3.44-17.33H71c-1.09 5.85-2.16 11.54-3.26 17.41H52.38Zm13.83 50.72c-2.06-10.12-4.06-20-6.32-31.1-2.13 11.26-4 21.1-5.87 31.1Zm92.84 13.56H162c-1.09 5.84-2.16 11.54-3.27 17.41H143.4l18.67-81.59h17.82c6.1 27 12.21 54.08 18.41 81.51h-17.12c-1.11-5.61-2.26-11.37-3.45-17.33Zm-8.11-44.68c-2.13 11.22-4 21-5.89 31.06h12.17c-2.04-10.1-4.03-19.91-6.28-31.06Z" class="cls-6"/>
      <path fill="#122d60" d="M365.29 149h42.06v14.22h-25.22v19.06h19.19v13.42h-19.16v20.64h25.32v14.24h-42.19Zm181.84 67.38h25.29v14.3h-42.16v-81.4h42.22v13.93h-25.35v19.25h19.34v13.24h-19.34Z"/>
      <path d="M133.93 230.69h-17.06v-66.28h-13.05V149h43.5v15.24h-13.39Z" class="cls-5"/>
      <path d="M336.13 230.67v-81.45h16.45v81.45Z" class="cls-6"/>
    </g>
  </g>
</svg>